:FULLY-SPECIFIED
:FORCE-ALL-JOINTS-BE-3DOF
:DEGREES
243
root 9.24408 16.4167 -2.62395 9.33737 -5.51205 -2.35599
lfemur -42.1958 7.30505 -21.5247
ltibia 37.2813 0 0
lfoot -10.5861 7.53321 0
ltoes 0.270211 0 0
rfemur 8.16344 1.4315 21.1667
rtibia 29.9979 0 0
rfoot 6.61331 4.52893 0
rtoes -14.8978 0 0
lowerback -6.28054 2.15141 -0.0242395
upperback -2.59628 2.79819 2.08732
thorax 0.741491 1.42164 2.3576
lowerneck -18.5113 -5.8257 -13.7851
upperneck 17.3216 -7.30593 14.3161
head 9.60568 -2.85678 6.3131
lclavicle 2.22944e-014 1.63773e-014 0
lhumerus -45.7122 -6.29322 90.1374
lradius 20.8197 0 0
lwrist -3.11091 0 0
lhand -10.2051 -25.2963 0
lfingers 7.12502 0 0
lthumb 15.7856 4.0702 0
rclavicle 2.22944e-014 1.63773e-014 0
rhumerus -45.7629 10.482 -87.2762
rradius 43.2232 0 0
rwrist -25.6699 0 0
rhand -30.2408 -27.3294 0
rfingers 7.12502 0 0
rthumb -3.54994 -57.2787 0
244
root 9.27512 16.4182 -2.45694 9.36031 -5.66154 -2.18351
lfemur -42.0604 7.6409 -21.989
ltibia 37.9462 0 0
lfoot -10.3662 7.22584 0
ltoes 1.04021 0 0
rfemur 7.95044 1.23917 20.7471
rtibia 31.1978 0 0
rfoot 7.38354 4.43775 0
rtoes -15.0734 0 0
lowerback -6.20669 2.12766 -0.177701
upperback -2.66207 2.7834 2.01679
thorax 0.628954 1.41439 2.36359
lowerneck -18.645 -5.81147 -13.7479
upperneck 17.4422 -7.28337 14.2783
head 9.66406 -2.84182 6.29911
lclavicle 2.3876e-014 1.75572e-014 0
lhumerus -45.4984 -6.16913 89.9082
lradius 20.6502 0 0
lwrist -3.44617 0 0
lhand -10.0457 -25.0543 0
lfingers 7.12502 0 0
lthumb 15.9391 4.30123 0
rclavicle 2.3876e-014 1.75572e-014 0
rhumerus -46.0521 10.3551 -87.3808
rradius 42.8088 0 0
rwrist -25.6279 0 0
rhand -30.1878 -27.2709 0
rfingers 7.12502 0 0
rthumb -3.49878 -57.2212 0
245
root 9.30616 16.4197 -2.28992 9.38325 -5.81103 -2.01102
lfemur -41.9251 7.97674 -22.4534
ltibia 38.6111 0 0
lfoot -10.1463 6.91847 0
ltoes 1.8102 0 0
rfemur 7.73744 1.04685 20.3275
rtibia 32.3977 0 0
rfoot 8.15377 4.34657 0
rtoes -15.249 0 0
lowerback -6.13284 2.1039 -0.331163
upperback -2.72786 2.76861 1.94625
thorax 0.516418 1.40714 2.36957
lowerneck -18.7788 -5.79724 -13.7107
upperneck 17.5629 -7.26081 14.2405
head 9.72243 -2.82687 6.28512
lclavicle 2.54576e-014 1.87371e-014 0
lhumerus -45.2847 -6.04503 89.6789
lradius 20.4808 0 0
lwrist -3.78143 0 0
lhand -9.8863 -24.8124 0
lfingers 7.12502 0 0
lthumb 16.0927 4.53225 0
rclavicle 2.54576e-014 1.87371e-014 0
rhumerus -46.3413 10.2283 -87.4853
rradius 42.3945 0 0
rwrist -25.5858 0 0
rhand -30.1348 -27.2124 0
rfingers 7.12502 0 0
rthumb -3.44762 -57.1637 0
246
root 9.3372 16.4211 -2.1229 9.40618 -5.96052 -1.83854
lfemur -41.7897 8.31259 -22.9178
ltibia 39.276 0 0
lfoot -9.92641 6.6111 0
ltoes 2.5802 0 0
rfemur 7.52444 0.854519 19.9079
rtibia 33.5977 0 0
rfoot 8.924 4.2554 0
rtoes -15.4245 0 0
lowerback -6.059 2.08015 -0.484624
upperback -2.79365 2.75382 1.87572
thorax 0.403881 1.39989 2.37556
lowerneck -18.9125 -5.78301 -13.6735
upperneck 17.6835 -7.23825 14.2027
head 9.7808 -2.81191 6.27113
lclavicle 2.70391e-014 1.99169e-014 0
lhumerus -45.071 -5.92094 89.4497
lradius 20.3113 0 0
lwrist -4.11669 0 0
lhand -9.72691 -24.5705 0
lfingers 7.12502 0 0
lthumb 16.2463 4.76328 0
rclavicle 2.70391e-014 1.99169e-014 0
rhumerus -46.6304 10.1014 -87.5899
rradius 41.9801 0 0
rwrist -25.5438 0 0
rhand -30.0818 -27.154 0
rfingers 7.12502 0 0
rthumb -3.39646 -57.1061 0
247
root 9.36825 16.4226 -1.95588 9.42912 -6.11 -1.66605
lfemur -41.6544 8.64844 -23.3822
ltibia 39.941 0 0
lfoot -9.70651 6.30374 0
ltoes 3.3502 0 0
rfemur 7.31143 0.662191 19.4884
rtibia 34.7976 0 0
rfoot 9.69424 4.16422 0
rtoes -15.6001 0 0
lowerback -5.98515 2.05639 -0.638086
upperback -2.85943 2.73903 1.80518
thorax 0.291344 1.39263 2.38154
lowerneck -19.0463 -5.76877 -13.6362
upperneck 17.8042 -7.21569 14.1649
head 9.83917 -2.79695 6.25713
lclavicle 2.86207e-014 2.10968e-014 0
lhumerus -44.8573 -5.79685 89.2204
lradius 20.1418 0 0
lwrist -4.45195 0 0
lhand -9.56753 -24.3286 0
lfingers 7.12502 0 0
lthumb 16.3999 4.9943 0
rclavicle 2.86207e-014 2.10968e-014 0
rhumerus -46.9196 9.97452 -87.6945
rradius 41.5657 0 0
rwrist -25.5017 0 0
rhand -30.0289 -27.0955 0
rfingers 7.12502 0 0
rthumb -3.3453 -57.0486 0
248
root 9.39929 16.424 -1.78887 9.45206 -6.25949 -1.49357
lfemur -41.519 8.98428 -23.8465
ltibia 40.6059 0 0
lfoot -9.4866 5.99637 0
ltoes 4.12019 0 0
rfemur 7.09843 0.469863 19.0688
rtibia 35.9975 0 0
rfoot 10.4645 4.07304 0
rtoes -15.7757 0 0
lowerback -5.91131 2.03264 -0.791547
upperback -2.92522 2.72424 1.73465
thorax 0.178807 1.38538 2.38753
lowerneck -19.18 -5.75454 -13.599
upperneck 17.9248 -7.19313 14.1271
head 9.89755 -2.782 6.24314
lclavicle 3.02022e-014 2.22767e-014 0
lhumerus -44.6436 -5.67275 88.9912
lradius 19.9724 0 0
lwrist -4.78721 0 0
lhand -9.40815 -24.0866 0
lfingers 7.12502 0 0
lthumb 16.5534 5.22533 0
rclavicle 3.02022e-014 2.22767e-014 0
rhumerus -47.2088 9.84765 -87.799
rradius 41.1514 0 0
rwrist -25.4597 0 0
rhand -29.9759 -27.037 0
rfingers 7.12502 0 0
rthumb -3.29414 -56.9911 0
